<svg id="SvgjsSvg1046" width="627" height="117" xmlns="http://www.w3.org/2000/svg" version="1.1" xmlns:xlink="http://www.w3.org/1999/xlink" xmlns:svgjs="http://svgjs.com/svgjs"><defs id="SvgjsDefs1047"></defs><rect id="SvgjsRect1048" width="627" height="117" fill="#ffffff"></rect><g id="SvgjsG1049" transform="translate(25,41)"><path id="SvgjsPath1050" d="M 0 0L 45 0L 45 45L 0 45Z" stroke="rgba(50,50,50,1)" stroke-width="2" fill-opacity="1" fill="#ff0000"></path><g id="SvgjsG1051"><text id="SvgjsText1052" font-family="微软雅黑" text-anchor="middle" font-size="13px" width="25px" fill="#323232" font-weight="400" align="middle" anchor="middle" family="微软雅黑" size="13px" weight="400" font-style="" opacity="1" y="12.55" transform="rotate(0)"></text></g></g><g id="SvgjsG1053" transform="translate(76.66666666666663,41)"><path id="SvgjsPath1054" d="M 0 0L 45 0L 45 45L 0 45Z" stroke="rgba(50,50,50,1)" stroke-width="2" fill-opacity="1" fill="#00ff00"></path><g id="SvgjsG1055"><text id="SvgjsText1056" font-family="微软雅黑" text-anchor="middle" font-size="13px" width="25px" fill="#80ff00" font-weight="400" align="middle" anchor="middle" family="微软雅黑" size="13px" weight="400" font-style="" opacity="1" y="12.55" transform="rotate(0)"></text></g></g><g id="SvgjsG1057" transform="translate(128.33333333333326,41)"><path id="SvgjsPath1058" d="M 0 0L 45 0L 45 45L 0 45Z" stroke="rgba(50,50,50,1)" stroke-width="2" fill-opacity="1" fill="#007fff"></path><g id="SvgjsG1059"><text id="SvgjsText1060" font-family="微软雅黑" text-anchor="middle" font-size="13px" width="25px" fill="#323232" font-weight="400" align="middle" anchor="middle" family="微软雅黑" size="13px" weight="400" font-style="" opacity="1" y="12.55" transform="rotate(0)"></text></g></g><g id="SvgjsG1061" transform="translate(452.66666666666674,41)"><path id="SvgjsPath1062" d="M 0 0L 45 0L 45 45L 0 45Z" stroke="rgba(50,50,50,1)" stroke-width="2" fill-opacity="1" fill="#ff0000"></path><g id="SvgjsG1063"><text id="SvgjsText1064" font-family="微软雅黑" text-anchor="middle" font-size="13px" width="25px" fill="#323232" font-weight="400" align="middle" anchor="middle" family="微软雅黑" size="13px" weight="400" font-style="" opacity="1" y="12.55" transform="rotate(0)"></text></g></g><g id="SvgjsG1065" transform="translate(504.33333333333337,41)"><path id="SvgjsPath1066" d="M 0 0L 45 0L 45 45L 0 45Z" stroke-dasharray="3,4" stroke="rgba(50,50,50,1)" stroke-width="2" fill-opacity="1" fill="#ffffff"></path><g id="SvgjsG1067"><text id="SvgjsText1068" font-family="微软雅黑" text-anchor="middle" font-size="13px" width="25px" fill="#80ff00" font-weight="400" align="middle" anchor="middle" family="微软雅黑" size="13px" weight="400" font-style="" opacity="1" y="12.55" transform="rotate(0)"></text></g></g><g id="SvgjsG1069" transform="translate(557,41)"><path id="SvgjsPath1070" d="M 0 0L 45 0L 45 45L 0 45Z" stroke="rgba(50,50,50,1)" stroke-width="2" fill-opacity="1" fill="#007fff"></path><g id="SvgjsG1071"><text id="SvgjsText1072" font-family="微软雅黑" text-anchor="middle" font-size="13px" width="25px" fill="#323232" font-weight="400" align="middle" anchor="middle" family="微软雅黑" size="13px" weight="400" font-style="" opacity="1" y="12.55" transform="rotate(0)"></text></g></g><g id="SvgjsG1073" transform="translate(235,25)"><path id="SvgjsPath1074" d="M 17.52 46.9C -14.600000000000001 33.5 5.84 23.45 13.139999999999999 20.099999999999998C 10.22 3.35 46.72 0 61.32 6.7C 73 -3.35 109.5 0 109.5 10.049999999999999C 138.7 6.7 150.38 20.099999999999998 138.7 36.85C 148.92000000000002 50.25 138.7 67 105.11999999999999 60.300000000000004C 97.82000000000001 69.01 68.61999999999999 69.01 61.32 60.300000000000004C 46.72 67 17.52 63.65 17.52 46.9Z" stroke="rgba(50,50,50,1)" stroke-width="2" fill-opacity="1" fill="#ffffff"></path><g id="SvgjsG1075"><text id="SvgjsText1076" font-family="微软雅黑" text-anchor="middle" font-size="13px" width="126px" fill="#323232" font-weight="400" align="middle" anchor="middle" family="微软雅黑" size="13px" weight="400" font-style="" opacity="1" y="23.55" transform="rotate(0)"><tspan id="SvgjsTspan1077" dy="16" x="73"><tspan id="SvgjsTspan1078" style="text-decoration:;">网络传输</tspan></tspan></text></g></g><g id="SvgjsG1079" transform="translate(189,48.5)"><path id="SvgjsPath1080" d="M 0 6.6000000000000005L 27 6.6000000000000005L 27 0L 37 10L 27 20L 27 13.4L 0 13.4L 0 6.6000000000000005Z" stroke="rgba(50,50,50,1)" stroke-width="2" fill-opacity="1" fill="#ffffff"></path><g id="SvgjsG1081"><text id="SvgjsText1082" font-family="微软雅黑" text-anchor="middle" font-size="13px" width="37px" fill="#323232" font-weight="400" align="middle" anchor="middle" family="微软雅黑" size="13px" weight="400" font-style="" opacity="1" y="0.05000000000000093" transform="rotate(0)"></text></g></g><g id="SvgjsG1083" transform="translate(402,48.5)"><path id="SvgjsPath1084" d="M 0 6.6000000000000005L 27 6.6000000000000005L 27 0L 37 10L 27 20L 27 13.4L 0 13.4L 0 6.6000000000000005Z" stroke="rgba(50,50,50,1)" stroke-width="2" fill-opacity="1" fill="#ffffff"></path><g id="SvgjsG1085"><text id="SvgjsText1086" font-family="微软雅黑" text-anchor="middle" font-size="13px" width="37px" fill="#323232" font-weight="400" align="middle" anchor="middle" family="微软雅黑" size="13px" weight="400" font-style="" opacity="1" y="0.05000000000000093" transform="rotate(0)"></text></g></g></svg>